solid Exported from Blender-2.93.5
facet normal 0.447966 -0.872054 -0.197099
outer loop
vertex 0.383237 -2.919650 2.128337
vertex 1.966814 -1.836837 0.936639
vertex 1.176733 -2.614904 2.583462
endloop
endfacet
facet normal 0.178124 -0.980023 -0.088472
outer loop
vertex 2.642697 -1.666659 0.412328
vertex 1.966814 -1.836837 0.936639
vertex 2.242042 -1.712283 0.111061
endloop
endfacet
facet normal 0.652140 -0.065344 0.755277
outer loop
vertex 2.642697 -1.666659 0.412328
vertex 2.726486 -2.095424 0.302886
vertex 3.153665 -2.096666 -0.066067
endloop
endfacet
facet normal 0.110608 -0.677526 0.727135
outer loop
vertex 3.153665 -2.096666 -0.066067
vertex 3.276493 -1.801921 0.189885
vertex 2.642697 -1.666659 0.412328
endloop
endfacet
facet normal -0.549699 -0.305843 0.777362
outer loop
vertex 2.642697 -1.666659 0.412328
vertex 2.242042 -1.712283 0.111061
vertex 2.726486 -2.095424 0.302886
endloop
endfacet
facet normal 0.199719 -0.405147 0.892170
outer loop
vertex 3.514070 -2.836929 -0.030890
vertex 3.199439 -2.540706 0.174061
vertex 2.890197 -2.678581 0.180677
endloop
endfacet
facet normal 0.202720 -0.397195 0.895065
outer loop
vertex 3.514070 -2.836929 -0.030890
vertex 2.890197 -2.678581 0.180677
vertex 3.003602 -3.082541 -0.024269
endloop
endfacet
facet normal 0.351256 -0.090907 0.931856
outer loop
vertex 3.872808 -1.753605 -0.030178
vertex 3.276493 -1.801921 0.189885
vertex 3.744033 -2.249980 -0.030061
endloop
endfacet
facet normal -0.201540 -0.592989 0.779580
outer loop
vertex 3.153665 -2.096666 -0.066067
vertex 3.744033 -2.249980 -0.030061
vertex 3.276493 -1.801921 0.189885
endloop
endfacet
facet normal 0.209308 0.668245 0.713890
outer loop
vertex 3.276493 -1.801921 0.189885
vertex 3.872808 -1.753605 -0.030178
vertex 2.582790 -1.361812 -0.018695
endloop
endfacet
facet normal 0.722097 -0.670198 0.171498
outer loop
vertex 2.609903 -2.311299 -0.049864
vertex 2.726486 -2.095424 0.302886
vertex 2.355948 -2.533757 0.150077
endloop
endfacet
facet normal 0.710475 -0.690904 0.133700
outer loop
vertex 2.609903 -2.311299 -0.049864
vertex 2.355948 -2.533757 0.150077
vertex 2.121026 -2.811662 -0.037654
endloop
endfacet
facet normal -0.136884 0.028048 0.990190
outer loop
vertex 2.242042 -1.712283 0.111061
vertex 2.049473 -2.011927 0.092928
vertex 2.355948 -2.533757 0.150077
endloop
endfacet
facet normal -0.373420 -0.007722 0.927630
outer loop
vertex 2.242042 -1.712283 0.111061
vertex 2.355948 -2.533757 0.150077
vertex 2.726486 -2.095424 0.302886
endloop
endfacet
facet normal 0.346778 0.787822 0.509000
outer loop
vertex 3.276493 -1.801921 0.189885
vertex 2.582790 -1.361812 -0.018695
vertex 2.642697 -1.666659 0.412328
endloop
endfacet
facet normal -0.579835 0.280557 -0.764904
outer loop
vertex 2.242042 -1.712283 0.111061
vertex 1.577784 -1.619851 0.648505
vertex 2.582790 -1.361812 -0.018695
endloop
endfacet
facet normal 0.685487 0.728085 0.000002
outer loop
vertex 2.726486 -2.095424 0.302886
vertex 3.199439 -2.540706 0.174061
vertex 3.514070 -2.836929 -0.030890
endloop
endfacet
facet normal 0.616643 0.334092 0.712835
outer loop
vertex 2.726486 -2.095424 0.302886
vertex 3.514070 -2.836929 -0.030890
vertex 3.153665 -2.096666 -0.066067
endloop
endfacet
facet normal -0.837111 -0.415516 0.355798
outer loop
vertex 2.609903 -2.311299 -0.049864
vertex 3.003602 -3.082541 -0.024269
vertex 2.890197 -2.678581 0.180677
endloop
endfacet
facet normal -0.818356 -0.328558 0.471533
outer loop
vertex 2.609903 -2.311299 -0.049864
vertex 2.890197 -2.678581 0.180677
vertex 2.726486 -2.095424 0.302886
endloop
endfacet
facet normal 0.850597 0.500507 0.161176
outer loop
vertex 2.309344 -1.027384 0.923570
vertex 2.483027 -1.250707 0.700463
vertex 2.465096 -1.119248 0.386868
endloop
endfacet
facet normal -0.489011 0.782636 -0.385162
outer loop
vertex 1.594552 -1.106907 1.669500
vertex 2.309344 -1.027384 0.923570
vertex 1.577784 -1.619851 0.648505
endloop
endfacet
facet normal 0.864933 -0.360367 0.349323
outer loop
vertex 2.309344 -1.027384 0.923570
vertex 1.727101 -1.612862 1.761233
vertex 1.966814 -1.836837 0.936639
endloop
endfacet
facet normal -0.413810 0.816180 -0.403250
outer loop
vertex 1.577784 -1.619851 0.648505
vertex 1.211094 -1.526583 1.213572
vertex 1.594552 -1.106907 1.669500
endloop
endfacet
facet normal 0.672873 0.298960 0.676657
outer loop
vertex 1.727101 -1.612862 1.761233
vertex 2.309344 -1.027384 0.923570
vertex 1.594552 -1.106907 1.669500
endloop
endfacet
facet normal -0.824935 0.112567 -0.553905
outer loop
vertex 1.211094 -1.526583 1.213572
vertex 1.577784 -1.619851 0.648505
vertex 0.845215 -2.218517 1.617861
endloop
endfacet
facet normal -0.833142 0.164520 -0.528023
outer loop
vertex 1.577784 -1.619851 0.648505
vertex 0.383237 -2.919650 2.128337
vertex 0.845215 -2.218517 1.617861
endloop
endfacet
facet normal 0.044603 -0.768160 -0.638702
outer loop
vertex 1.966814 -1.836837 0.936639
vertex 0.383237 -2.919650 2.128337
vertex 1.577784 -1.619851 0.648505
endloop
endfacet
facet normal 0.915180 -0.232528 0.329206
outer loop
vertex 1.727101 -1.612862 1.761233
vertex 1.176733 -2.614904 2.583462
vertex 1.966814 -1.836837 0.936639
endloop
endfacet
facet normal -0.474086 0.777353 -0.413478
outer loop
vertex 2.582790 -1.361812 -0.018695
vertex 1.577784 -1.619851 0.648505
vertex 2.309344 -1.027384 0.923570
endloop
endfacet
facet normal -0.960378 0.000005 -0.278702
outer loop
vertex 2.582790 -1.361812 -0.018695
vertex 2.309344 -1.027384 0.923570
vertex 2.465096 -1.119248 0.386868
endloop
endfacet
facet normal -0.326409 -0.912525 -0.246488
outer loop
vertex 2.242042 -1.712283 0.111061
vertex 1.966814 -1.836837 0.936639
vertex 1.577784 -1.619851 0.648505
endloop
endfacet
facet normal 0.631838 -0.262621 0.729254
outer loop
vertex 1.966814 -1.836837 0.936639
vertex 2.642697 -1.666659 0.412328
vertex 2.483027 -1.250707 0.700463
endloop
endfacet
facet normal 0.624684 -0.252412 0.738957
outer loop
vertex 1.966814 -1.836837 0.936639
vertex 2.483027 -1.250707 0.700463
vertex 2.309344 -1.027384 0.923570
endloop
endfacet
facet normal 0.757685 0.650686 -0.050213
outer loop
vertex 1.752849 -1.327081 3.630759
vertex 1.941757 -1.604413 2.887450
vertex 1.109901 -0.649716 2.706700
endloop
endfacet
facet normal 0.958459 0.217678 -0.184315
outer loop
vertex 1.594552 -1.106907 1.669500
vertex 1.941757 -1.604413 2.887450
vertex 1.727101 -1.612862 1.761233
endloop
endfacet
facet normal 0.747298 0.662007 0.057381
outer loop
vertex 1.941757 -1.604413 2.887450
vertex 1.594552 -1.106907 1.669500
vertex 1.109901 -0.649716 2.706700
endloop
endfacet
facet normal 0.982259 0.009470 -0.187289
outer loop
vertex 1.941757 -1.604413 2.887450
vertex 1.828846 -1.991643 2.275695
vertex 1.727101 -1.612862 1.761233
endloop
endfacet
facet normal 0.952649 -0.110431 0.283312
outer loop
vertex 1.752849 -1.327081 3.630759
vertex 1.662331 -2.068930 3.645967
vertex 1.941757 -1.604413 2.887450
endloop
endfacet
facet normal -0.026421 -0.875406 -0.482665
outer loop
vertex -0.435584 -3.482203 3.193460
vertex 0.383237 -2.919650 2.128337
vertex 0.408584 -3.488152 3.158038
endloop
endfacet
facet normal 0.006593 -0.299684 0.954016
outer loop
vertex 0.446175 -2.832935 3.363601
vertex -0.440517 -2.830239 3.370574
vertex 0.408584 -3.488152 3.158038
endloop
endfacet
facet normal 0.782308 -0.348421 0.516331
outer loop
vertex 1.176733 -2.614904 2.583462
vertex 0.781132 -2.292075 3.400695
vertex 0.408584 -3.488152 3.158038
endloop
endfacet
facet normal 0.381880 -0.296534 0.875349
outer loop
vertex 0.408584 -3.488152 3.158038
vertex 0.781132 -2.292075 3.400695
vertex 0.446175 -2.832935 3.363601
endloop
endfacet
facet normal 0.525463 -0.739297 -0.421103
outer loop
vertex 0.383237 -2.919650 2.128337
vertex 1.176733 -2.614904 2.583462
vertex 0.408584 -3.488152 3.158038
endloop
endfacet
facet normal 0.007428 -0.123538 0.992312
outer loop
vertex -0.440517 -2.830239 3.370574
vertex 0.446175 -2.832935 3.363601
vertex -0.760776 -2.229914 3.447709
endloop
endfacet
facet normal 0.026943 -0.084996 0.996017
outer loop
vertex -0.760776 -2.229914 3.447709
vertex 0.446175 -2.832935 3.363601
vertex 0.781132 -2.292075 3.400695
endloop
endfacet
facet normal 0.038100 0.205405 0.977935
outer loop
vertex 0.781132 -2.292075 3.400695
vertex 0.036328 -1.397824 3.241884
vertex -0.760776 -2.229914 3.447709
endloop
endfacet
facet normal 0.837290 -0.222400 -0.499483
outer loop
vertex 1.594552 -1.106907 1.669500
vertex 1.211094 -1.526583 1.213572
vertex 1.249080 0.020636 0.588332
endloop
endfacet
facet normal 0.365831 -0.654900 -0.661267
outer loop
vertex 1.211094 -1.526583 1.213572
vertex 0.111059 -1.862888 0.938067
vertex 0.694251 -1.055288 0.460882
endloop
endfacet
facet normal 0.362559 -0.605608 -0.708371
outer loop
vertex 1.211094 -1.526583 1.213572
vertex 0.845215 -2.218517 1.617861
vertex 0.111059 -1.862888 0.938067
endloop
endfacet
facet normal 0.186019 -0.960759 0.205763
outer loop
vertex 1.415764 -2.303670 2.772820
vertex 1.662331 -2.068930 3.645967
vertex 0.781132 -2.292075 3.400695
endloop
endfacet
facet normal -0.173550 0.801879 0.571726
outer loop
vertex 1.067731 -1.497120 3.882434
vertex 1.109901 -0.649716 2.706700
vertex 0.569453 -1.449149 3.663898
endloop
endfacet
facet normal 0.904874 -0.008738 0.425590
outer loop
vertex 2.331961 0.359397 0.354153
vertex 2.520385 0.374081 -0.046165
vertex 2.323927 1.522888 0.395123
endloop
endfacet
facet normal -0.387801 -0.162770 0.907258
outer loop
vertex 2.353701 -0.207706 0.028214
vertex 2.731836 -0.448506 0.146643
vertex 2.685597 0.226070 0.247903
endloop
endfacet
facet normal 0.401603 0.888594 0.221623
outer loop
vertex 2.520385 0.374081 -0.046165
vertex 2.331961 0.359397 0.354153
vertex 2.685597 0.226070 0.247903
endloop
endfacet
facet normal 0.309705 -0.153380 0.938380
outer loop
vertex 3.349122 -0.151217 -0.032756
vertex 3.473963 0.393016 0.014997
vertex 2.685597 0.226070 0.247903
endloop
endfacet
facet normal -0.047664 0.881212 0.470312
outer loop
vertex 2.685597 0.226070 0.247903
vertex 3.473963 0.393016 0.014997
vertex 2.520385 0.374081 -0.046165
endloop
endfacet
facet normal 0.073589 -0.494831 0.865868
outer loop
vertex 2.685597 0.226070 0.247903
vertex 2.331961 0.359397 0.354153
vertex 2.353701 -0.207706 0.028214
endloop
endfacet
facet normal 0.386037 -0.162206 0.908110
outer loop
vertex 2.186515 -0.790244 -0.004768
vertex 2.353701 -0.207706 0.028214
vertex 1.952725 -0.394069 0.165380
endloop
endfacet
facet normal -0.608249 0.251434 0.752871
outer loop
vertex 2.035694 0.394745 -0.031026
vertex 1.691134 -0.543906 0.004080
vertex 1.952725 -0.394069 0.165380
endloop
endfacet
facet normal -0.763005 0.230609 0.603856
outer loop
vertex 2.035694 0.394745 -0.031026
vertex 1.952725 -0.394069 0.165380
vertex 2.195966 0.193910 0.248183
endloop
endfacet
facet normal -0.231767 -0.496133 0.836742
outer loop
vertex 1.691134 -0.543906 0.004080
vertex 2.186515 -0.790244 -0.004768
vertex 1.952725 -0.394069 0.165380
endloop
endfacet
facet normal 0.850715 0.465010 0.245049
outer loop
vertex 3.273669 -0.702315 -0.031932
vertex 2.912453 -0.037201 -0.040064
vertex 2.685597 0.226070 0.247903
endloop
endfacet
facet normal -0.428081 -0.244302 0.870094
outer loop
vertex 2.353701 -0.207706 0.028214
vertex 2.710751 -1.040021 -0.029814
vertex 2.731836 -0.448506 0.146643
endloop
endfacet
facet normal -0.218176 -0.799748 0.559287
outer loop
vertex 3.349122 -0.151217 -0.032756
vertex 2.685597 0.226070 0.247903
vertex 2.912453 -0.037201 -0.040064
endloop
endfacet
facet normal 0.148209 0.988684 -0.023215
outer loop
vertex 1.009465 3.433767 0.762274
vertex 1.349383 3.378105 0.561820
vertex 1.211064 3.385035 -0.026068
endloop
endfacet
facet normal -0.657110 0.723150 -0.212743
outer loop
vertex 1.009465 3.433767 0.762274
vertex 1.211064 3.385035 -0.026068
vertex 0.717574 2.919966 -0.082650
endloop
endfacet
facet normal 0.741345 -0.304347 -0.598147
outer loop
vertex 2.035694 0.394745 -0.031026
vertex 2.331961 0.359397 0.354153
vertex 2.434002 0.001224 0.662867
endloop
endfacet
facet normal 0.860556 0.469745 -0.196936
outer loop
vertex 2.323927 1.522888 0.395123
vertex 1.211064 3.385035 -0.026068
vertex 1.349383 3.378105 0.561820
endloop
endfacet
facet normal -0.925107 -0.083551 0.370399
outer loop
vertex 1.009465 3.433767 0.762274
vertex 0.717574 2.919966 -0.082650
vertex 0.993374 2.771685 0.572741
endloop
endfacet
facet normal -0.672331 -0.733945 0.096416
outer loop
vertex 1.538688 0.876096 1.079401
vertex 0.779394 1.494251 0.490233
vertex 2.434002 0.001224 0.662867
endloop
endfacet
facet normal 0.870373 0.436781 0.227316
outer loop
vertex 2.323927 1.522888 0.395123
vertex 1.349383 3.378105 0.561820
vertex 1.571474 2.651700 1.107220
endloop
endfacet
facet normal -0.526724 -0.003592 0.850029
outer loop
vertex 1.538688 0.876096 1.079401
vertex 1.571474 2.651700 1.107220
vertex 1.009465 3.433767 0.762274
endloop
endfacet
facet normal 0.870152 0.439774 0.222338
outer loop
vertex 1.571474 2.651700 1.107220
vertex 2.266638 1.231448 1.195788
vertex 2.323927 1.522888 0.395123
endloop
endfacet
facet normal -0.865027 -0.118540 0.487522
outer loop
vertex 1.009465 3.433767 0.762274
vertex 0.993374 2.771685 0.572741
vertex 1.538688 0.876096 1.079401
endloop
endfacet
facet normal 0.955056 0.017015 -0.295938
outer loop
vertex 2.434002 0.001224 0.662867
vertex 2.331961 0.359397 0.354153
vertex 2.323927 1.522888 0.395123
endloop
endfacet
facet normal 0.540288 0.358863 0.761122
outer loop
vertex 0.993374 2.771685 0.572741
vertex 0.602349 3.058404 0.715127
vertex 1.538688 0.876096 1.079401
endloop
endfacet
facet normal -0.867274 0.000000 0.497830
outer loop
vertex 2.035694 0.394745 -0.031026
vertex 2.195966 0.193910 0.248183
vertex 2.434002 0.001224 0.662867
endloop
endfacet
facet normal -0.667179 -0.743881 -0.038897
outer loop
vertex 2.035694 0.394745 -0.031026
vertex 2.434002 0.001224 0.662867
vertex 0.779394 1.494251 0.490233
endloop
endfacet
facet normal 0.464787 0.465818 0.752985
outer loop
vertex 1.109901 -0.649716 2.706700
vertex 1.219664 1.008124 1.613360
vertex -0.030126 2.515162 1.452507
endloop
endfacet
facet normal 0.469331 0.469069 0.748133
outer loop
vertex 1.219664 1.008124 1.613360
vertex 0.602349 3.058404 0.715127
vertex -0.030126 2.515162 1.452507
endloop
endfacet
facet normal 0.961170 0.212003 -0.176656
outer loop
vertex 1.219664 1.008124 1.613360
vertex 1.249080 0.020636 0.588332
vertex 0.602349 3.058404 0.715127
endloop
endfacet
facet normal 0.035854 0.789653 0.612505
outer loop
vertex 0.602349 3.058404 0.715127
vertex -0.034572 3.172608 0.605176
vertex -0.030126 2.515162 1.452507
endloop
endfacet
facet normal 0.930368 0.280848 -0.235667
outer loop
vertex 0.573397 1.676510 -0.105802
vertex 0.779394 1.494251 0.490233
vertex 1.249080 0.020636 0.588332
endloop
endfacet
facet normal 0.703745 0.178527 -0.687656
outer loop
vertex 1.249080 0.020636 0.588332
vertex 0.779394 1.494251 0.490233
vertex 0.602349 3.058404 0.715127
endloop
endfacet
facet normal 0.576454 0.815056 -0.058178
outer loop
vertex 0.993374 2.771685 0.572741
vertex 0.717574 2.919966 -0.082650
vertex 0.602349 3.058404 0.715127
endloop
endfacet
facet normal 0.198083 0.970172 -0.139744
outer loop
vertex -0.034572 3.172608 0.605176
vertex 0.602349 3.058404 0.715127
vertex 0.717574 2.919966 -0.082650
endloop
endfacet
facet normal -0.689932 -0.178941 0.701409
outer loop
vertex 0.602349 3.058404 0.715127
vertex 0.779394 1.494251 0.490233
vertex 1.538688 0.876096 1.079401
endloop
endfacet
facet normal -0.659097 -0.752055 -0.002176
outer loop
vertex 0.573397 1.676510 -0.105802
vertex 2.035694 0.394745 -0.031026
vertex 0.779394 1.494251 0.490233
endloop
endfacet
facet normal 0.760730 0.038819 -0.647906
outer loop
vertex 1.249080 0.020636 0.588332
vertex 0.668582 -0.290134 -0.111872
vertex 0.573397 1.676510 -0.105802
endloop
endfacet
facet normal 0.159395 0.412792 0.896769
outer loop
vertex -0.030126 2.515162 1.452507
vertex 0.036328 -1.397824 3.241884
vertex 1.109901 -0.649716 2.706700
endloop
endfacet
facet normal 0.919373 0.172344 0.353625
outer loop
vertex 1.219664 1.008124 1.613360
vertex 1.109901 -0.649716 2.706700
vertex 1.594552 -1.106907 1.669500
endloop
endfacet
facet normal 0.976219 0.169444 -0.135224
outer loop
vertex 1.594552 -1.106907 1.669500
vertex 1.249080 0.020636 0.588332
vertex 1.219664 1.008124 1.613360
endloop
endfacet
facet normal 0.698976 -0.282628 -0.656928
outer loop
vertex 1.211094 -1.526583 1.213572
vertex 0.694251 -1.055288 0.460882
vertex 1.249080 0.020636 0.588332
endloop
endfacet
facet normal 0.013620 0.810941 0.584970
outer loop
vertex 1.752849 -1.327081 3.630759
vertex 1.109901 -0.649716 2.706700
vertex 1.067731 -1.497120 3.882434
endloop
endfacet
facet normal 0.722983 -0.666315 0.182535
outer loop
vertex 1.176733 -2.614904 2.583462
vertex 1.828846 -1.991643 2.275695
vertex 1.415764 -2.303670 2.772820
endloop
endfacet
facet normal 0.390888 -0.702602 -0.594607
outer loop
vertex 1.176733 -2.614904 2.583462
vertex 1.727101 -1.612862 1.761233
vertex 1.828846 -1.991643 2.275695
endloop
endfacet
facet normal 0.349853 -0.023489 0.936510
outer loop
vertex 1.067731 -1.497120 3.882434
vertex 1.662331 -2.068930 3.645967
vertex 1.752849 -1.327081 3.630759
endloop
endfacet
facet normal -0.119233 -0.482771 0.867592
outer loop
vertex 1.662331 -2.068930 3.645967
vertex 1.067731 -1.497120 3.882434
vertex 0.781132 -2.292075 3.400695
endloop
endfacet
facet normal 0.802606 -0.592701 -0.067303
outer loop
vertex 1.941757 -1.604413 2.887450
vertex 1.662331 -2.068930 3.645967
vertex 1.415764 -2.303670 2.772820
endloop
endfacet
facet normal 0.498084 -0.696661 0.516310
outer loop
vertex 1.415764 -2.303670 2.772820
vertex 0.781132 -2.292075 3.400695
vertex 1.176733 -2.614904 2.583462
endloop
endfacet
facet normal 0.754906 -0.608113 0.245593
outer loop
vertex 1.941757 -1.604413 2.887450
vertex 1.415764 -2.303670 2.772820
vertex 1.828846 -1.991643 2.275695
endloop
endfacet
facet normal 0.044446 -0.392007 0.918888
outer loop
vertex 1.538688 0.876096 1.079401
vertex 2.434002 0.001224 0.662867
vertex 2.266638 1.231448 1.195788
endloop
endfacet
facet normal 0.472256 0.617022 0.629490
outer loop
vertex 1.009465 3.433767 0.762274
vertex 1.571474 2.651700 1.107220
vertex 1.349383 3.378105 0.561820
endloop
endfacet
facet normal 0.990550 0.089882 0.103594
outer loop
vertex 2.434002 0.001224 0.662867
vertex 2.323927 1.522888 0.395123
vertex 2.266638 1.231448 1.195788
endloop
endfacet
facet normal -0.151826 -0.012681 0.988326
outer loop
vertex 2.266638 1.231448 1.195788
vertex 1.571474 2.651700 1.107220
vertex 1.538688 0.876096 1.079401
endloop
endfacet
facet normal -0.403304 -0.363497 0.839771
outer loop
vertex 0.781132 -2.292075 3.400695
vertex 1.067731 -1.497120 3.882434
vertex 0.569453 -1.449149 3.663898
endloop
endfacet
facet normal -0.597898 -0.371872 0.710091
outer loop
vertex 0.781132 -2.292075 3.400695
vertex 0.569453 -1.449149 3.663898
vertex 0.036328 -1.397824 3.241884
endloop
endfacet
facet normal -0.157010 -0.908014 0.388405
outer loop
vertex -1.854349 -1.676193 1.077731
vertex -2.861047 -1.786627 0.412607
vertex -2.033454 -2.014798 0.213736
endloop
endfacet
facet normal 0.181519 -0.219405 0.958599
outer loop
vertex -1.985028 -2.228614 0.163046
vertex -2.420276 -2.588999 0.162978
vertex -2.072862 -3.166787 -0.035052
endloop
endfacet
facet normal 0.252558 -0.222478 0.941657
outer loop
vertex -1.985028 -2.228614 0.163046
vertex -2.072862 -3.166787 -0.035052
vertex -1.625209 -2.808861 -0.070551
endloop
endfacet
facet normal -0.420682 -0.035299 0.906521
outer loop
vertex -3.823380 -2.243141 -0.051752
vertex -2.861047 -1.786627 0.412607
vertex -3.831673 -1.678241 -0.033603
endloop
endfacet
facet normal -0.066170 0.927025 0.369114
outer loop
vertex -3.179673 -1.610653 -0.086469
vertex -3.831673 -1.678241 -0.033603
vertex -2.861047 -1.786627 0.412607
endloop
endfacet
facet normal -0.214515 -0.346244 0.913290
outer loop
vertex -2.665082 -2.375834 0.235257
vertex -2.861047 -1.786627 0.412607
vertex -3.006599 -2.137487 0.245402
endloop
endfacet
facet normal -0.128109 -0.224679 0.965975
outer loop
vertex -3.006599 -2.137487 0.245402
vertex -3.092872 -2.578101 0.131477
vertex -2.665082 -2.375834 0.235257
endloop
endfacet
facet normal -0.218469 0.868169 0.445594
outer loop
vertex -2.372624 -1.398347 -0.104427
vertex -3.179673 -1.610653 -0.086469
vertex -2.861047 -1.786627 0.412607
endloop
endfacet
facet normal -0.289039 -0.311484 0.905226
outer loop
vertex -2.861047 -1.786627 0.412607
vertex -3.823380 -2.243141 -0.051752
vertex -3.006599 -2.137487 0.245402
endloop
endfacet
facet normal -0.025895 -0.402742 0.914947
outer loop
vertex -2.963658 -3.102098 -0.095520
vertex -3.092872 -2.578101 0.131477
vertex -3.651895 -2.978044 -0.060392
endloop
endfacet
facet normal -0.767245 0.567663 -0.298486
outer loop
vertex -2.861047 -1.786627 0.412607
vertex -2.281202 -0.755965 0.882266
vertex -2.372624 -1.398347 -0.104427
endloop
endfacet
facet normal 0.729717 0.058815 -0.681215
outer loop
vertex -1.719803 -1.394335 0.603288
vertex -2.033454 -2.014798 0.213736
vertex -2.093940 -1.396600 0.202316
endloop
endfacet
facet normal 0.642294 0.700645 -0.310733
outer loop
vertex -1.719803 -1.394335 0.603288
vertex -2.281202 -0.755965 0.882266
vertex -1.634636 -1.002226 1.663464
endloop
endfacet
facet normal 0.725014 0.624984 -0.289394
outer loop
vertex -1.634636 -1.002226 1.663464
vertex -1.071697 -1.853841 1.234615
vertex -1.719803 -1.394335 0.603288
endloop
endfacet
facet normal -0.086329 -0.845579 -0.526824
outer loop
vertex -1.719803 -1.394335 0.603288
vertex -1.071697 -1.853841 1.234615
vertex -1.854349 -1.676193 1.077731
endloop
endfacet
facet normal 0.530791 0.684924 -0.499139
outer loop
vertex -2.281202 -0.755965 0.882266
vertex -1.719803 -1.394335 0.603288
vertex -2.093940 -1.396600 0.202316
endloop
endfacet
facet normal 0.539414 0.681940 -0.493954
outer loop
vertex -2.281202 -0.755965 0.882266
vertex -2.093940 -1.396600 0.202316
vertex -2.372624 -1.398347 -0.104427
endloop
endfacet
facet normal 0.895139 -0.445654 -0.010905
outer loop
vertex -1.719803 -1.394335 0.603288
vertex -1.854349 -1.676193 1.077731
vertex -2.033454 -2.014798 0.213736
endloop
endfacet
facet normal -0.436614 -0.504831 0.744656
outer loop
vertex -1.634636 -1.002226 1.663464
vertex -2.861047 -1.786627 0.412607
vertex -1.854349 -1.676193 1.077731
endloop
endfacet
facet normal -0.745659 0.120908 0.655266
outer loop
vertex -2.281202 -0.755965 0.882266
vertex -2.861047 -1.786627 0.412607
vertex -1.634636 -1.002226 1.663464
endloop
endfacet
facet normal -0.401163 0.863454 0.305804
outer loop
vertex -1.432557 -0.780143 2.451527
vertex -1.685855 -1.328468 3.667466
vertex -0.935983 -0.664560 2.776594
endloop
endfacet
facet normal -0.957065 0.225787 0.181787
outer loop
vertex -1.776598 -2.134595 2.322519
vertex -1.432557 -0.780143 2.451527
vertex -1.634636 -1.002226 1.663464
endloop
endfacet
facet normal 0.010039 -0.746623 -0.665172
outer loop
vertex 0.383237 -2.919650 2.128337
vertex -0.337221 -2.535060 1.685781
vertex 0.111059 -1.862888 0.938067
endloop
endfacet
facet normal -0.094860 -0.848295 -0.520958
outer loop
vertex -0.435584 -3.482203 3.193460
vertex -0.702184 -2.910535 2.311137
vertex 0.383237 -2.919650 2.128337
endloop
endfacet
facet normal -0.555488 -0.764360 -0.327394
outer loop
vertex -0.435584 -3.482203 3.193460
vertex -1.776598 -2.134595 2.322519
vertex -0.702184 -2.910535 2.311137
endloop
endfacet
facet normal -0.144473 -0.931440 -0.333986
outer loop
vertex -1.776598 -2.134595 2.322519
vertex -1.854349 -1.676193 1.077731
vertex -1.071697 -1.853841 1.234615
endloop
endfacet
facet normal -0.253968 -0.255355 0.932896
outer loop
vertex -0.440517 -2.830239 3.370574
vertex -0.760776 -2.229914 3.447709
vertex -0.435584 -3.482203 3.193460
endloop
endfacet
facet normal 0.038621 -0.261693 0.964378
outer loop
vertex -0.440517 -2.830239 3.370574
vertex -0.435584 -3.482203 3.193460
vertex 0.408584 -3.488152 3.158038
endloop
endfacet
facet normal -0.806497 -0.267636 -0.527193
outer loop
vertex -1.271278 0.020636 0.588332
vertex -1.071697 -1.853841 1.234615
vertex -1.634636 -1.002226 1.663464
endloop
endfacet
facet normal 0.295622 0.759602 0.579321
outer loop
vertex 0.036328 -1.397824 3.241884
vertex -0.935983 -0.664560 2.776594
vertex -0.435507 -1.511154 3.631253
endloop
endfacet
facet normal 0.120423 0.744757 0.656381
outer loop
vertex -0.980636 -1.642089 3.893931
vertex -0.935983 -0.664560 2.776594
vertex -1.685855 -1.328468 3.667466
endloop
endfacet
facet normal 0.174551 -0.321305 0.930750
outer loop
vertex -1.687723 -0.537132 -0.038232
vertex -2.324913 0.330638 0.380828
vertex -2.522981 -0.192919 0.237236
endloop
endfacet
facet normal -0.061166 -0.364629 0.929142
outer loop
vertex -2.799646 0.002924 0.220970
vertex -2.324913 0.330638 0.380828
vertex -2.588068 0.362433 0.375982
endloop
endfacet
facet normal 0.267808 -0.494171 0.827088
outer loop
vertex -2.522981 -0.192919 0.237236
vertex -2.807564 -0.378011 0.218793
vertex -2.863217 -0.868556 -0.056278
endloop
endfacet
facet normal -0.512467 0.005747 0.858688
outer loop
vertex -3.245174 -0.648926 -0.040560
vertex -2.807564 -0.378011 0.218793
vertex -2.799646 0.002924 0.220970
endloop
endfacet
facet normal 0.430003 -0.297906 0.852261
outer loop
vertex 1.952725 -0.394069 0.165380
vertex 2.353701 -0.207706 0.028214
vertex 2.195966 0.193910 0.248183
endloop
endfacet
facet normal -0.006370 0.999711 0.023188
outer loop
vertex -2.527369 0.371839 -0.012870
vertex -3.520103 0.365587 -0.016064
vertex -2.588068 0.362433 0.375982
endloop
endfacet
facet normal -0.192039 -0.191342 0.962554
outer loop
vertex -2.522981 -0.192919 0.237236
vertex -2.324913 0.330638 0.380828
vertex -2.799646 0.002924 0.220970
endloop
endfacet
facet normal 0.811872 0.383598 0.440133
outer loop
vertex -1.687723 -0.537132 -0.038232
vertex -2.117570 0.373207 -0.038739
vertex -2.324913 0.330638 0.380828
endloop
endfacet
facet normal -0.833688 -0.544316 0.093186
outer loop
vertex -2.522981 -0.192919 0.237236
vertex -2.503763 -0.265474 -0.014636
vertex -2.151988 -0.803644 -0.011024
endloop
endfacet
facet normal 0.204319 -0.259565 0.943864
outer loop
vertex -1.687723 -0.537132 -0.038232
vertex -2.522981 -0.192919 0.237236
vertex -2.151988 -0.803644 -0.011024
endloop
endfacet
facet normal 0.833216 -0.511178 0.210828
outer loop
vertex -2.863217 -0.868556 -0.056278
vertex -2.503763 -0.265474 -0.014636
vertex -2.522981 -0.192919 0.237236
endloop
endfacet
facet normal -0.329794 -0.269785 0.904683
outer loop
vertex -2.588068 0.362433 0.375982
vertex -3.417741 0.010965 -0.031100
vertex -3.417291 0.010486 -0.031078
endloop
endfacet
facet normal -0.373958 -0.172810 0.911204
outer loop
vertex -2.588068 0.362433 0.375982
vertex -3.417291 0.010486 -0.031078
vertex -2.799646 0.002924 0.220970
endloop
endfacet
facet normal -0.324963 -0.253703 0.911062
outer loop
vertex -1.684241 0.679897 1.091447
vertex -2.172808 1.142786 1.046082
vertex -2.434002 0.101192 0.662867
endloop
endfacet
facet normal 0.812227 0.542465 -0.214518
outer loop
vertex -0.699973 2.891316 -0.082580
vertex -1.001732 3.352542 -0.058792
vertex -0.887573 3.468422 0.666477
endloop
endfacet
facet normal -0.260664 0.958890 -0.112177
outer loop
vertex -0.887573 3.468422 0.666477
vertex -1.001732 3.352542 -0.058792
vertex -1.392720 3.318889 0.562070
endloop
endfacet
facet normal -0.043416 -0.210485 0.976633
outer loop
vertex -2.324913 0.330638 0.380828
vertex -2.151729 1.564279 0.654402
vertex -2.588068 0.362433 0.375982
endloop
endfacet
facet normal 0.978842 0.067448 0.193183
outer loop
vertex -0.815952 2.967767 0.478382
vertex -0.699973 2.891316 -0.082580
vertex -0.887573 3.468422 0.666477
endloop
endfacet
facet normal 0.604966 -0.796078 0.016598
outer loop
vertex -2.434002 0.101192 0.662867
vertex -0.837001 1.312165 0.536161
vertex -1.684241 0.679897 1.091447
endloop
endfacet
facet normal -0.792118 0.368268 0.486751
outer loop
vertex -1.529992 2.413469 1.023707
vertex -1.392720 3.318889 0.562070
vertex -2.151729 1.564279 0.654402
endloop
endfacet
facet normal -0.899492 0.377527 -0.219974
outer loop
vertex -2.151729 1.564279 0.654402
vertex -1.392720 3.318889 0.562070
vertex -2.588068 0.362433 0.375982
endloop
endfacet
facet normal -0.915799 0.378696 -0.133795
outer loop
vertex -2.527369 0.371839 -0.012870
vertex -2.588068 0.362433 0.375982
vertex -1.392720 3.318889 0.562070
endloop
endfacet
facet normal 0.499143 -0.010555 0.866455
outer loop
vertex -0.887573 3.468422 0.666477
vertex -1.529992 2.413469 1.023707
vertex -1.684241 0.679897 1.091447
endloop
endfacet
facet normal -0.812458 0.418162 0.406266
outer loop
vertex -2.151729 1.564279 0.654402
vertex -2.172808 1.142786 1.046082
vertex -1.529992 2.413469 1.023707
endloop
endfacet
facet normal -0.786748 0.395385 -0.474023
outer loop
vertex -2.527369 0.371839 -0.012870
vertex -1.392720 3.318889 0.562070
vertex -1.001732 3.352542 -0.058792
endloop
endfacet
facet normal 0.533408 -0.745299 -0.400006
outer loop
vertex -2.324913 0.330638 0.380828
vertex -0.837001 1.312165 0.536161
vertex -2.434002 0.101192 0.662867
endloop
endfacet
facet normal 0.770287 -0.124761 0.625375
outer loop
vertex -1.684241 0.679897 1.091447
vertex -0.815952 2.967767 0.478382
vertex -0.887573 3.468422 0.666477
endloop
endfacet
facet normal -0.957812 0.183511 -0.221177
outer loop
vertex -2.151729 1.564279 0.654402
vertex -2.324913 0.330638 0.380828
vertex -2.434002 0.101192 0.662867
endloop
endfacet
facet normal -0.801126 0.418651 0.427702
outer loop
vertex -1.684241 0.679897 1.091447
vertex -0.760256 2.677303 0.867022
vertex -0.815952 2.967767 0.478382
endloop
endfacet
facet normal -0.292602 0.745368 0.599008
outer loop
vertex -0.034572 3.172608 0.605176
vertex -0.815952 2.967767 0.478382
vertex -0.760256 2.677303 0.867022
endloop
endfacet
facet normal -0.500640 0.439212 0.745957
outer loop
vertex -0.760256 2.677303 0.867022
vertex -1.432557 -0.780143 2.451527
vertex -0.030126 2.515162 1.452507
endloop
endfacet
facet normal -0.981920 0.189260 -0.003654
outer loop
vertex -0.760256 2.677303 0.867022
vertex -1.271278 0.020636 0.588332
vertex -1.432557 -0.780143 2.451527
endloop
endfacet
facet normal -0.686188 -0.008573 -0.727374
outer loop
vertex -1.271278 0.020636 0.588332
vertex -0.560175 1.669397 -0.101940
vertex -0.537573 -0.459225 -0.098173
endloop
endfacet
facet normal -0.302295 0.752337 0.585326
outer loop
vertex -0.760256 2.677303 0.867022
vertex -0.030126 2.515162 1.452507
vertex -0.034572 3.172608 0.605176
endloop
endfacet
facet normal -0.018848 0.931669 -0.362819
outer loop
vertex -0.034572 3.172608 0.605176
vertex 0.717574 2.919966 -0.082650
vertex -0.699973 2.891316 -0.082580
endloop
endfacet
facet normal -0.924708 0.301548 -0.232345
outer loop
vertex -1.271278 0.020636 0.588332
vertex -0.837001 1.312165 0.536161
vertex -0.560175 1.669397 -0.101940
endloop
endfacet
facet normal -0.695287 0.205975 -0.688586
outer loop
vertex -0.760256 2.677303 0.867022
vertex -0.837001 1.312165 0.536161
vertex -1.271278 0.020636 0.588332
endloop
endfacet
facet normal -0.222667 0.958748 -0.176699
outer loop
vertex -0.034572 3.172608 0.605176
vertex -0.699973 2.891316 -0.082580
vertex -0.815952 2.967767 0.478382
endloop
endfacet
facet normal 0.528977 -0.829928 0.177209
outer loop
vertex -2.324913 0.330638 0.380828
vertex -2.117570 0.373207 -0.038739
vertex -0.837001 1.312165 0.536161
endloop
endfacet
facet normal 0.642307 -0.214449 0.735836
outer loop
vertex -1.684241 0.679897 1.091447
vertex -0.837001 1.312165 0.536161
vertex -0.760256 2.677303 0.867022
endloop
endfacet
facet normal 0.628343 -0.762486 -0.154275
outer loop
vertex -0.837001 1.312165 0.536161
vertex -2.117570 0.373207 -0.038739
vertex -0.560175 1.669397 -0.101940
endloop
endfacet
facet normal -0.122326 0.411030 0.903377
outer loop
vertex -0.935983 -0.664560 2.776594
vertex 0.036328 -1.397824 3.241884
vertex -0.030126 2.515162 1.452507
endloop
endfacet
facet normal -0.560154 0.449369 0.695913
outer loop
vertex -0.935983 -0.664560 2.776594
vertex -0.030126 2.515162 1.452507
vertex -1.432557 -0.780143 2.451527
endloop
endfacet
facet normal -0.895552 0.431651 0.108000
outer loop
vertex -1.634636 -1.002226 1.663464
vertex -1.432557 -0.780143 2.451527
vertex -1.271278 0.020636 0.588332
endloop
endfacet
facet normal -0.751653 -0.345569 -0.561783
outer loop
vertex -1.271278 0.020636 0.588332
vertex -0.537573 -0.459225 -0.098173
vertex -0.626443 -1.173510 0.460110
endloop
endfacet
facet normal -0.182237 -0.684409 -0.705956
outer loop
vertex -1.071697 -1.853841 1.234615
vertex -0.626443 -1.173510 0.460110
vertex 0.111059 -1.862888 0.938067
endloop
endfacet
facet normal 0.563517 -0.355350 0.745771
outer loop
vertex -0.980636 -1.642089 3.893931
vertex -0.760776 -2.229914 3.447709
vertex 0.036328 -1.397824 3.241884
endloop
endfacet
facet normal 0.233549 -0.972345 0.000004
outer loop
vertex -0.980636 -1.642089 3.893931
vertex 0.036328 -1.397824 3.241884
vertex -0.435507 -1.511154 3.631253
endloop
endfacet
facet normal -0.970606 0.199787 0.134199
outer loop
vertex -1.854349 -1.676193 1.077731
vertex -1.776598 -2.134595 2.322519
vertex -1.634636 -1.002226 1.663464
endloop
endfacet
facet normal -0.763804 -0.484334 0.426642
outer loop
vertex -1.250705 -2.418727 2.941455
vertex -1.776598 -2.134595 2.322519
vertex -0.435584 -3.482203 3.193460
endloop
endfacet
facet normal -0.841599 0.536007 0.066394
outer loop
vertex -1.432557 -0.780143 2.451527
vertex -1.948162 -1.645166 2.899248
vertex -1.685855 -1.328468 3.667466
endloop
endfacet
facet normal -0.843383 0.259062 -0.470736
outer loop
vertex -1.432557 -0.780143 2.451527
vertex -1.776598 -2.134595 2.322519
vertex -1.948162 -1.645166 2.899248
endloop
endfacet
facet normal -0.093739 -0.899723 0.426277
outer loop
vertex -1.682287 -2.050146 3.624496
vertex -1.250705 -2.418727 2.941455
vertex -0.760776 -2.229914 3.447709
endloop
endfacet
facet normal -0.735854 -0.669125 -0.103878
outer loop
vertex -1.250705 -2.418727 2.941455
vertex -1.682287 -2.050146 3.624496
vertex -1.948162 -1.645166 2.899248
endloop
endfacet
facet normal -0.712595 -0.625110 0.318506
outer loop
vertex -1.250705 -2.418727 2.941455
vertex -1.948162 -1.645166 2.899248
vertex -1.776598 -2.134595 2.322519
endloop
endfacet
facet normal -0.942949 -0.024432 0.332040
outer loop
vertex -1.948162 -1.645166 2.899248
vertex -1.682287 -2.050146 3.624496
vertex -1.685855 -1.328468 3.667466
endloop
endfacet
facet normal 0.037889 -0.595168 0.802707
outer loop
vertex -0.760776 -2.229914 3.447709
vertex -0.980636 -1.642089 3.893931
vertex -1.682287 -2.050146 3.624496
endloop
endfacet
facet normal -0.328430 -0.057757 0.942761
outer loop
vertex -0.980636 -1.642089 3.893931
vertex -1.685855 -1.328468 3.667466
vertex -1.682287 -2.050146 3.624496
endloop
endfacet
facet normal -0.623751 -0.307840 0.718449
outer loop
vertex -0.435584 -3.482203 3.193460
vertex -0.760776 -2.229914 3.447709
vertex -1.250705 -2.418727 2.941455
endloop
endfacet
facet normal -0.309738 0.468741 0.827251
outer loop
vertex -1.392720 3.318889 0.562070
vertex -1.529992 2.413469 1.023707
vertex -0.887573 3.468422 0.666477
endloop
endfacet
facet normal -0.970591 0.188124 0.150209
outer loop
vertex -2.172808 1.142786 1.046082
vertex -2.151729 1.564279 0.654402
vertex -2.434002 0.101192 0.662867
endloop
endfacet
facet normal -0.051372 0.043558 0.997729
outer loop
vertex -1.684241 0.679897 1.091447
vertex -1.529992 2.413469 1.023707
vertex -2.172808 1.142786 1.046082
endloop
endfacet
facet normal 0.001010 -0.025381 -0.999677
outer loop
vertex 2.121026 -2.811662 -0.037654
vertex 1.851025 -2.320718 -0.050391
vertex 2.609903 -2.311299 -0.049864
endloop
endfacet
facet normal 0.013933 0.075101 -0.997079
outer loop
vertex 3.872808 -1.753605 -0.030178
vertex 3.153665 -2.096666 -0.066067
vertex 2.582790 -1.361812 -0.018695
endloop
endfacet
facet normal 0.000287 0.032818 -0.999461
outer loop
vertex 2.609903 -2.311299 -0.049864
vertex 1.851025 -2.320718 -0.050391
vertex 2.582790 -1.361812 -0.018695
endloop
endfacet
facet normal 0.062393 0.073026 -0.995377
outer loop
vertex 3.473963 0.393016 0.014997
vertex 3.349122 -0.151217 -0.032756
vertex 2.520385 0.374081 -0.046165
endloop
endfacet
facet normal 0.017121 0.001488 -0.999852
outer loop
vertex 3.349122 -0.151217 -0.032756
vertex 2.912453 -0.037201 -0.040064
vertex 2.520385 0.374081 -0.046165
endloop
endfacet
facet normal -0.182833 -0.072961 -0.980433
outer loop
vertex 2.520385 0.374081 -0.046165
vertex 2.353701 -0.207706 0.028214
vertex 1.211064 3.385035 -0.026068
endloop
endfacet
facet normal -0.265871 -0.046925 -0.962866
outer loop
vertex 2.710751 -1.040021 -0.029814
vertex 2.353701 -0.207706 0.028214
vertex 2.520385 0.374081 -0.046165
endloop
endfacet
facet normal -0.030806 -0.026062 -0.999186
outer loop
vertex 2.035694 0.394745 -0.031026
vertex 2.186515 -0.790244 -0.004768
vertex 1.691134 -0.543906 0.004080
endloop
endfacet
facet normal -0.000161 0.005496 -0.999985
outer loop
vertex 0.717574 2.919966 -0.082650
vertex 0.025348 -0.831107 -0.103156
vertex -0.699973 2.891316 -0.082580
endloop
endfacet
facet normal -0.083947 0.030766 -0.995995
outer loop
vertex -3.179673 -1.610653 -0.086469
vertex -3.823380 -2.243141 -0.051752
vertex -3.831673 -1.678241 -0.033603
endloop
endfacet
facet normal -0.061808 -0.004417 0.998078
outer loop
vertex -2.799646 0.002924 0.220970
vertex -2.807564 -0.378011 0.218793
vertex -2.522981 -0.192919 0.237236
endloop
endfacet
facet normal 0.857353 0.402482 0.320864
outer loop
vertex -1.969803 -2.065614 -0.082097
vertex -1.985028 -2.228614 0.163046
vertex -1.625209 -2.808861 -0.070551
endloop
endfacet
facet normal -0.063048 0.016897 -0.997867
outer loop
vertex -1.001732 3.352542 -0.058792
vertex -2.117570 0.373207 -0.038739
vertex -2.527369 0.371839 -0.012870
endloop
endfacet
facet normal -0.013941 -0.031542 -0.999405
outer loop
vertex -3.179673 -1.610653 -0.086469
vertex -2.372624 -1.398347 -0.104427
vertex -3.098631 -2.120996 -0.071492
endloop
endfacet
facet normal -0.090382 0.045460 -0.994869
outer loop
vertex -2.372624 -1.398347 -0.104427
vertex -3.651895 -2.978044 -0.060392
vertex -3.098631 -2.120996 -0.071492
endloop
endfacet
facet normal 0.015377 0.003340 -0.999876
outer loop
vertex -2.151988 -0.803644 -0.011024
vertex -2.503763 -0.265474 -0.014636
vertex -2.527369 0.371839 -0.012870
endloop
endfacet
facet normal 0.104122 0.006612 -0.994543
outer loop
vertex -2.503763 -0.265474 -0.014636
vertex -2.863217 -0.868556 -0.056278
vertex -2.527369 0.371839 -0.012870
endloop
endfacet
facet normal -0.045797 -0.022181 -0.998704
outer loop
vertex -1.687723 -0.537132 -0.038232
vertex -2.151988 -0.803644 -0.011024
vertex -2.117570 0.373207 -0.038739
endloop
endfacet
facet normal 0.056983 -0.015017 -0.998262
outer loop
vertex 3.153665 -2.096666 -0.066067
vertex 3.872808 -1.753605 -0.030178
vertex 3.744033 -2.249980 -0.030061
endloop
endfacet
facet normal 0.008008 -0.043574 -0.999018
outer loop
vertex 3.003602 -3.082541 -0.024269
vertex 3.153665 -2.096666 -0.066067
vertex 3.514070 -2.836929 -0.030890
endloop
endfacet
facet normal -0.114232 -0.024718 -0.993147
outer loop
vertex 3.003602 -3.082541 -0.024269
vertex 2.582790 -1.361812 -0.018695
vertex 3.153665 -2.096666 -0.066067
endloop
endfacet
facet normal -0.841254 0.540640 0.000000
outer loop
vertex 1.851025 -2.320718 -0.050391
vertex 2.049473 -2.011927 0.092928
vertex 2.242042 -1.712283 0.111061
endloop
endfacet
facet normal -0.729766 0.569412 -0.378433
outer loop
vertex 1.851025 -2.320718 -0.050391
vertex 2.242042 -1.712283 0.111061
vertex 2.582790 -1.361812 -0.018695
endloop
endfacet
facet normal 0.135623 0.036375 -0.990093
outer loop
vertex 2.609903 -2.311299 -0.049864
vertex 2.582790 -1.361812 -0.018695
vertex 3.003602 -3.082541 -0.024269
endloop
endfacet
facet normal 0.366758 0.102674 -0.924633
outer loop
vertex 1.211064 3.385035 -0.026068
vertex 2.353701 -0.207706 0.028214
vertex 2.035694 0.394745 -0.031026
endloop
endfacet
facet normal 0.061114 0.011497 -0.998065
outer loop
vertex 0.573397 1.676510 -0.105802
vertex 0.717574 2.919966 -0.082650
vertex 2.035694 0.394745 -0.031026
endloop
endfacet
facet normal 0.002695 -0.010762 -0.999938
outer loop
vertex 2.710751 -1.040021 -0.029814
vertex 2.912453 -0.037201 -0.040064
vertex 3.273669 -0.702315 -0.031932
endloop
endfacet
facet normal 0.003996 -0.011024 -0.999931
outer loop
vertex 2.710751 -1.040021 -0.029814
vertex 2.520385 0.374081 -0.046165
vertex 2.912453 -0.037201 -0.040064
endloop
endfacet
facet normal 0.186809 0.002007 -0.982394
outer loop
vertex 2.353701 -0.207706 0.028214
vertex 2.186515 -0.790244 -0.004768
vertex 2.035694 0.394745 -0.031026
endloop
endfacet
facet normal 0.089376 0.026298 -0.995651
outer loop
vertex 2.035694 0.394745 -0.031026
vertex 0.717574 2.919966 -0.082650
vertex 1.211064 3.385035 -0.026068
endloop
endfacet
facet normal -0.188162 0.040088 -0.981320
outer loop
vertex 0.025348 -0.831107 -0.103156
vertex 0.717574 2.919966 -0.082650
vertex 0.573397 1.676510 -0.105802
endloop
endfacet
facet normal -0.021694 -0.032768 -0.999228
outer loop
vertex -3.823380 -2.243141 -0.051752
vertex -3.179673 -1.610653 -0.086469
vertex -3.098631 -2.120996 -0.071492
endloop
endfacet
facet normal 0.020821 -0.044703 -0.998783
outer loop
vertex -3.651895 -2.978044 -0.060392
vertex -2.372624 -1.398347 -0.104427
vertex -2.622441 -2.413170 -0.064214
endloop
endfacet
facet normal -0.039225 0.064738 -0.997131
outer loop
vertex -3.651895 -2.978044 -0.060392
vertex -2.622441 -2.413170 -0.064214
vertex -2.963658 -3.102098 -0.095520
endloop
endfacet
facet normal 0.967995 0.177070 0.177855
outer loop
vertex -2.033454 -2.014798 0.213736
vertex -1.985028 -2.228614 0.163046
vertex -1.969803 -2.065614 -0.082097
endloop
endfacet
facet normal 0.850883 0.516824 0.094298
outer loop
vertex -2.033454 -2.014798 0.213736
vertex -1.969803 -2.065614 -0.082097
vertex -2.372624 -1.398347 -0.104427
endloop
endfacet
facet normal -0.227142 -0.456583 0.860196
outer loop
vertex -2.863217 -0.868556 -0.056278
vertex -2.807564 -0.378011 0.218793
vertex -3.245174 -0.648926 -0.040560
endloop
endfacet
facet normal 0.002933 0.044636 -0.998999
outer loop
vertex -3.520103 0.365587 -0.016064
vertex -2.527369 0.371839 -0.012870
vertex -3.418826 0.010505 -0.031632
endloop
endfacet
facet normal -0.062914 -0.021658 -0.997784
outer loop
vertex -2.151988 -0.803644 -0.011024
vertex -2.527369 0.371839 -0.012870
vertex -2.117570 0.373207 -0.038739
endloop
endfacet
facet normal 0.127137 0.030253 -0.991424
outer loop
vertex -0.560175 1.669397 -0.101940
vertex -0.699973 2.891316 -0.082580
vertex 0.025348 -0.831107 -0.103156
endloop
endfacet
facet normal -0.056579 0.014471 -0.998293
outer loop
vertex -2.117570 0.373207 -0.038739
vertex -1.001732 3.352542 -0.058792
vertex -0.699973 2.891316 -0.082580
endloop
endfacet
facet normal -0.049031 0.010214 -0.998745
outer loop
vertex -2.117570 0.373207 -0.038739
vertex -0.699973 2.891316 -0.082580
vertex -0.560175 1.669397 -0.101940
endloop
endfacet
facet normal 0.771106 0.338915 -0.539010
outer loop
vertex 2.323927 1.522888 0.395123
vertex 2.520385 0.374081 -0.046165
vertex 1.211064 3.385035 -0.026068
endloop
endfacet
facet normal -0.176793 -0.213795 0.960747
outer loop
vertex -3.651895 -2.978044 -0.060392
vertex -3.092872 -2.578101 0.131477
vertex -3.006599 -2.137487 0.245402
endloop
endfacet
facet normal 0.140302 -0.169630 0.975470
outer loop
vertex -2.665082 -2.375834 0.235257
vertex -2.420276 -2.588999 0.162978
vertex -1.985028 -2.228614 0.163046
endloop
endfacet
facet normal 0.145575 -0.196886 0.969559
outer loop
vertex -2.665082 -2.375834 0.235257
vertex -1.985028 -2.228614 0.163046
vertex -2.033454 -2.014798 0.213736
endloop
endfacet
facet normal -0.030929 -0.403729 0.914356
outer loop
vertex -2.665082 -2.375834 0.235257
vertex -3.092872 -2.578101 0.131477
vertex -2.963658 -3.102098 -0.095520
endloop
endfacet
facet normal -0.809168 0.525753 0.262357
outer loop
vertex -3.098631 -2.120996 -0.071492
vertex -3.651895 -2.978044 -0.060392
vertex -3.006599 -2.137487 0.245402
endloop
endfacet
facet normal 0.162779 -0.981747 -0.098365
outer loop
vertex -3.098631 -2.120996 -0.071492
vertex -3.006599 -2.137487 0.245402
vertex -3.823380 -2.243141 -0.051752
endloop
endfacet
facet normal 0.959170 -0.229572 0.165196
outer loop
vertex -2.372624 -1.398347 -0.104427
vertex -2.665082 -2.375834 0.235257
vertex -2.622441 -2.413170 -0.064214
endloop
endfacet
facet normal 0.878145 -0.443125 0.180283
outer loop
vertex -2.665082 -2.375834 0.235257
vertex -2.963658 -3.102098 -0.095520
vertex -2.622441 -2.413170 -0.064214
endloop
endfacet
facet normal 0.126875 0.043429 -0.990968
outer loop
vertex -2.372624 -1.398347 -0.104427
vertex -1.969803 -2.065614 -0.082097
vertex -1.625209 -2.808861 -0.070551
endloop
endfacet
facet normal -0.042130 -0.046294 -0.998039
outer loop
vertex -2.372624 -1.398347 -0.104427
vertex -1.625209 -2.808861 -0.070551
vertex -2.072862 -3.166787 -0.035052
endloop
endfacet
facet normal -0.006328 -0.327619 0.944789
outer loop
vertex -2.072862 -3.166787 -0.035052
vertex -2.420276 -2.588999 0.162978
vertex -2.665082 -2.375834 0.235257
endloop
endfacet
facet normal -0.806522 -0.589760 -0.041311
outer loop
vertex -2.072862 -3.166787 -0.035052
vertex -2.665082 -2.375834 0.235257
vertex -2.622441 -2.413170 -0.064214
endloop
endfacet
facet normal -0.000953 -0.039361 -0.999225
outer loop
vertex -2.072862 -3.166787 -0.035052
vertex -2.622441 -2.413170 -0.064214
vertex -2.372624 -1.398347 -0.104427
endloop
endfacet
facet normal 0.039258 -0.045024 -0.998214
outer loop
vertex -2.527369 0.371839 -0.012870
vertex -2.734677 0.068161 -0.007326
vertex -3.418826 0.010505 -0.031632
endloop
endfacet
facet normal 0.008608 0.086268 -0.996235
outer loop
vertex -2.863217 -0.868556 -0.056278
vertex -3.245174 -0.648926 -0.040560
vertex -3.039324 -0.314078 -0.009785
endloop
endfacet
facet normal -0.065909 -0.499119 0.864023
outer loop
vertex 2.353701 -0.207706 0.028214
vertex 2.331961 0.359397 0.354153
vertex 2.195966 0.193910 0.248183
endloop
endfacet
facet normal -0.069158 0.061525 -0.995707
outer loop
vertex -3.039324 -0.314078 -0.009785
vertex -2.734677 0.068161 -0.007326
vertex -2.863217 -0.868556 -0.056278
endloop
endfacet
facet normal -0.127909 0.069256 -0.989365
outer loop
vertex -2.734677 0.068161 -0.007326
vertex -2.527369 0.371839 -0.012870
vertex -2.863217 -0.868556 -0.056278
endloop
endfacet
facet normal -0.781102 0.622829 -0.044311
outer loop
vertex -2.799646 0.002924 0.220970
vertex -2.734677 0.068161 -0.007326
vertex -3.039324 -0.314078 -0.009785
endloop
endfacet
facet normal -0.844369 0.501839 0.187614
outer loop
vertex -2.799646 0.002924 0.220970
vertex -3.039324 -0.314078 -0.009785
vertex -3.245174 -0.648926 -0.040560
endloop
endfacet
facet normal 0.090522 -0.954773 -0.283221
outer loop
vertex -3.417291 0.010486 -0.031078
vertex -3.418826 0.010505 -0.031632
vertex -2.734677 0.068161 -0.007326
endloop
endfacet
facet normal 0.090149 -0.964082 -0.249837
outer loop
vertex -3.417291 0.010486 -0.031078
vertex -2.734677 0.068161 -0.007326
vertex -2.799646 0.002924 0.220970
endloop
endfacet
facet normal -0.383807 -0.149421 0.911244
outer loop
vertex -2.588068 0.362433 0.375982
vertex -3.520103 0.365587 -0.016064
vertex -3.417741 0.010965 -0.031100
endloop
endfacet
facet normal -0.329868 -0.269073 0.904869
outer loop
vertex -3.417291 0.010486 -0.031078
vertex -3.417741 0.010965 -0.031100
vertex -3.418826 0.010505 -0.031632
endloop
endfacet
facet normal 0.175816 -0.287162 0.941608
outer loop
vertex 2.731836 -0.448506 0.146643
vertex 2.710751 -1.040021 -0.029814
vertex 3.273669 -0.702315 -0.031932
endloop
endfacet
facet normal 0.256669 -0.126244 0.958219
outer loop
vertex 2.685597 0.226070 0.247903
vertex 2.731836 -0.448506 0.146643
vertex 3.273669 -0.702315 -0.031932
endloop
endfacet
facet normal 0.947383 0.310910 0.076162
outer loop
vertex 2.465096 -1.119248 0.386868
vertex 2.483027 -1.250707 0.700463
vertex 2.642697 -1.666659 0.412328
endloop
endfacet
facet normal 0.946240 0.311115 0.088525
outer loop
vertex 2.465096 -1.119248 0.386868
vertex 2.642697 -1.666659 0.412328
vertex 2.582790 -1.361812 -0.018695
endloop
endfacet
facet normal -0.150253 -0.666809 -0.729924
outer loop
vertex 0.111059 -1.862888 0.938067
vertex -0.626443 -1.173510 0.460110
vertex 0.062075 -1.270340 0.406838
endloop
endfacet
facet normal -0.688380 -0.300854 -0.660015
outer loop
vertex -0.626443 -1.173510 0.460110
vertex -1.071697 -1.853841 1.234615
vertex -1.271278 0.020636 0.588332
endloop
endfacet
facet normal 0.791696 -0.348851 -0.501519
outer loop
vertex 1.249080 0.020636 0.588332
vertex 0.694251 -1.055288 0.460882
vertex 0.668582 -0.290134 -0.111872
endloop
endfacet
facet normal -0.184660 -0.673274 -0.715963
outer loop
vertex 0.111059 -1.862888 0.938067
vertex -0.337221 -2.535060 1.685781
vertex -1.071697 -1.853841 1.234615
endloop
endfacet
facet normal 0.291802 -0.681153 -0.671477
outer loop
vertex 0.111059 -1.862888 0.938067
vertex 0.845215 -2.218517 1.617861
vertex 0.383237 -2.919650 2.128337
endloop
endfacet
facet normal -0.100330 -0.826081 -0.554549
outer loop
vertex 0.383237 -2.919650 2.128337
vertex -0.702184 -2.910535 2.311137
vertex -0.337221 -2.535060 1.685781
endloop
endfacet
facet normal -0.300295 -0.730213 -0.613688
outer loop
vertex -0.702184 -2.910535 2.311137
vertex -1.071697 -1.853841 1.234615
vertex -0.337221 -2.535060 1.685781
endloop
endfacet
facet normal -0.507686 -0.695515 -0.508442
outer loop
vertex -0.702184 -2.910535 2.311137
vertex -1.776598 -2.134595 2.322519
vertex -1.071697 -1.853841 1.234615
endloop
endfacet
facet normal 0.276057 -0.628839 -0.726880
outer loop
vertex 0.111059 -1.862888 0.938067
vertex 0.062075 -1.270340 0.406838
vertex 0.694251 -1.055288 0.460882
endloop
endfacet
facet normal -0.155421 -0.754016 -0.638204
outer loop
vertex 0.062075 -1.270340 0.406838
vertex -0.626443 -1.173510 0.460110
vertex 0.025348 -0.831107 -0.103156
endloop
endfacet
facet normal 0.738652 0.059870 -0.671423
outer loop
vertex -2.093940 -1.396600 0.202316
vertex -2.033454 -2.014798 0.213736
vertex -2.372624 -1.398347 -0.104427
endloop
endfacet
facet normal -0.010092 -0.001877 -0.999947
outer loop
vertex -0.537573 -0.459225 -0.098173
vertex -0.560175 1.669397 -0.101940
vertex 0.025348 -0.831107 -0.103156
endloop
endfacet
facet normal -0.366266 -0.544306 -0.754706
outer loop
vertex -0.626443 -1.173510 0.460110
vertex -0.537573 -0.459225 -0.098173
vertex 0.025348 -0.831107 -0.103156
endloop
endfacet
facet normal -0.015512 0.002335 -0.999877
outer loop
vertex 0.573397 1.676510 -0.105802
vertex 0.668582 -0.290134 -0.111872
vertex 0.025348 -0.831107 -0.103156
endloop
endfacet
facet normal 0.435826 -0.529932 -0.727480
outer loop
vertex 0.694251 -1.055288 0.460882
vertex 0.025348 -0.831107 -0.103156
vertex 0.668582 -0.290134 -0.111872
endloop
endfacet
facet normal 0.296826 -0.712893 -0.635356
outer loop
vertex 0.694251 -1.055288 0.460882
vertex 0.062075 -1.270340 0.406838
vertex 0.025348 -0.831107 -0.103156
endloop
endfacet
facet normal 0.165950 -0.233211 0.958161
outer loop
vertex -2.665082 -2.375834 0.235257
vertex -2.033454 -2.014798 0.213736
vertex -2.861047 -1.786627 0.412607
endloop
endfacet
facet normal 0.099920 -0.177135 0.979101
outer loop
vertex 2.890197 -2.678581 0.180677
vertex 3.199439 -2.540706 0.174061
vertex 2.726486 -2.095424 0.302886
endloop
endfacet
facet normal -0.418065 -0.147365 0.896384
outer loop
vertex 2.355948 -2.533757 0.150077
vertex 2.049473 -2.011927 0.092928
vertex 1.851025 -2.320718 -0.050391
endloop
endfacet
facet normal -0.438321 -0.218439 0.871871
outer loop
vertex 2.355948 -2.533757 0.150077
vertex 1.851025 -2.320718 -0.050391
vertex 2.121026 -2.811662 -0.037654
endloop
endfacet
facet normal -0.315562 0.808364 0.496959
outer loop
vertex 0.569453 -1.449149 3.663898
vertex 1.109901 -0.649716 2.706700
vertex 0.036328 -1.397824 3.241884
endloop
endfacet
facet normal 0.137366 0.742762 0.655313
outer loop
vertex -0.435507 -1.511154 3.631253
vertex -0.935983 -0.664560 2.776594
vertex -0.980636 -1.642089 3.893931
endloop
endfacet
endsolid Exported from Blender-2.93.5
