solid Exported from Blender-2.93.5
facet normal 0.577350 0.577350 -0.577350
outer loop
vertex -1.000000 1.000000 -1.000000
vertex 1.000000 1.000000 1.000000
vertex 1.000000 -1.000000 -1.000000
endloop
endfacet
facet normal -0.577350 -0.577350 -0.577350
outer loop
vertex 1.000000 -1.000000 -1.000000
vertex -1.000000 -1.000000 1.000000
vertex -1.000000 1.000000 -1.000000
endloop
endfacet
facet normal 0.577350 -0.577350 0.577350
outer loop
vertex 1.000000 1.000000 1.000000
vertex -1.000000 -1.000000 1.000000
vertex 1.000000 -1.000000 -1.000000
endloop
endfacet
facet normal -0.577350 0.577350 0.577350
outer loop
vertex -1.000000 -1.000000 1.000000
vertex 1.000000 1.000000 1.000000
vertex -1.000000 1.000000 -1.000000
endloop
endfacet
endsolid Exported from Blender-2.93.5
